<svg width="1330" height="483" viewBox="0 0 1330 483" fill="none" xmlns="http://www.w3.org/2000/svg">
<g filter="url(#filter0_d_13_10)">
<rect x="80" y="7" width="1170" height="323" rx="30" fill="white"/>
</g>
<path d="M161.631 202.477C159.176 202.477 156.994 202.057 155.085 201.216C153.188 200.375 151.688 199.205 150.585 197.705C149.483 196.205 148.898 194.472 148.83 192.506H155.239C155.295 193.449 155.608 194.273 156.176 194.977C156.744 195.67 157.5 196.21 158.443 196.597C159.386 196.983 160.443 197.176 161.614 197.176C162.864 197.176 163.972 196.96 164.938 196.528C165.903 196.085 166.659 195.472 167.205 194.688C167.75 193.903 168.017 193 168.006 191.977C168.017 190.92 167.744 189.989 167.188 189.182C166.631 188.375 165.824 187.744 164.767 187.29C163.722 186.835 162.46 186.608 160.983 186.608H157.898V181.733H160.983C162.199 181.733 163.261 181.523 164.17 181.102C165.091 180.682 165.813 180.091 166.335 179.33C166.858 178.557 167.114 177.665 167.102 176.653C167.114 175.665 166.892 174.807 166.438 174.08C165.994 173.341 165.364 172.767 164.545 172.358C163.739 171.949 162.79 171.744 161.699 171.744C160.631 171.744 159.642 171.937 158.733 172.324C157.824 172.71 157.091 173.261 156.534 173.977C155.977 174.682 155.682 175.523 155.648 176.5H149.562C149.608 174.545 150.17 172.83 151.25 171.352C152.341 169.864 153.795 168.705 155.614 167.875C157.432 167.034 159.472 166.614 161.733 166.614C164.063 166.614 166.085 167.051 167.801 167.926C169.528 168.79 170.864 169.955 171.807 171.42C172.75 172.886 173.222 174.506 173.222 176.278C173.233 178.244 172.653 179.892 171.483 181.222C170.324 182.551 168.801 183.42 166.915 183.83V184.102C169.369 184.443 171.25 185.352 172.557 186.83C173.875 188.295 174.528 190.119 174.517 192.301C174.517 194.256 173.96 196.006 172.847 197.551C171.744 199.085 170.222 200.29 168.278 201.165C166.347 202.04 164.131 202.477 161.631 202.477ZM193.271 202.665C190.464 202.665 188.055 201.955 186.044 200.534C184.044 199.102 182.504 197.04 181.425 194.347C180.357 191.642 179.822 188.386 179.822 184.58C179.834 180.773 180.374 177.534 181.442 174.864C182.521 172.182 184.061 170.136 186.061 168.727C188.072 167.318 190.476 166.614 193.271 166.614C196.067 166.614 198.47 167.318 200.482 168.727C202.493 170.136 204.033 172.182 205.101 174.864C206.18 177.545 206.72 180.784 206.72 184.58C206.72 188.398 206.18 191.659 205.101 194.364C204.033 197.057 202.493 199.114 200.482 200.534C198.482 201.955 196.078 202.665 193.271 202.665ZM193.271 197.33C195.453 197.33 197.175 196.256 198.436 194.108C199.709 191.949 200.345 188.773 200.345 184.58C200.345 181.807 200.055 179.477 199.476 177.591C198.896 175.705 198.078 174.284 197.021 173.33C195.964 172.364 194.714 171.881 193.271 171.881C191.101 171.881 189.385 172.96 188.124 175.119C186.862 177.267 186.226 180.42 186.214 184.58C186.203 187.364 186.482 189.705 187.05 191.602C187.629 193.5 188.447 194.932 189.504 195.898C190.561 196.852 191.817 197.33 193.271 197.33ZM225.287 202.665C222.48 202.665 220.071 201.955 218.06 200.534C216.06 199.102 214.52 197.04 213.44 194.347C212.372 191.642 211.838 188.386 211.838 184.58C211.849 180.773 212.389 177.534 213.457 174.864C214.537 172.182 216.077 170.136 218.077 168.727C220.088 167.318 222.491 166.614 225.287 166.614C228.082 166.614 230.486 167.318 232.497 168.727C234.509 170.136 236.048 172.182 237.116 174.864C238.196 177.545 238.736 180.784 238.736 184.58C238.736 188.398 238.196 191.659 237.116 194.364C236.048 197.057 234.509 199.114 232.497 200.534C230.497 201.955 228.094 202.665 225.287 202.665ZM225.287 197.33C227.469 197.33 229.19 196.256 230.452 194.108C231.724 191.949 232.361 188.773 232.361 184.58C232.361 181.807 232.071 179.477 231.491 177.591C230.912 175.705 230.094 174.284 229.037 173.33C227.98 172.364 226.73 171.881 225.287 171.881C223.116 171.881 221.401 172.96 220.139 175.119C218.878 177.267 218.241 180.42 218.23 184.58C218.219 187.364 218.497 189.705 219.065 191.602C219.645 193.5 220.463 194.932 221.52 195.898C222.577 196.852 223.832 197.33 225.287 197.33ZM254.763 196.409V172.818H260.115V196.409H254.763ZM245.643 187.29V181.938H269.234V187.29H245.643Z" fill="#08546C"/>
<path d="M135.585 236.067V222.976H140.009C141.036 222.976 141.875 223.161 142.527 223.532C143.183 223.898 143.669 224.395 143.984 225.021C144.3 225.648 144.457 226.346 144.457 227.118C144.457 227.889 144.3 228.59 143.984 229.221C143.673 229.851 143.192 230.354 142.54 230.729C141.888 231.1 141.053 231.285 140.034 231.285H136.864V229.879H139.983C140.686 229.879 141.251 229.758 141.677 229.515C142.103 229.272 142.412 228.944 142.604 228.53C142.8 228.113 142.898 227.642 142.898 227.118C142.898 226.594 142.8 226.125 142.604 225.712C142.412 225.298 142.101 224.974 141.67 224.74C141.24 224.501 140.669 224.382 139.957 224.382H137.17V236.067H135.585ZM146.806 236.067V226.248H148.264V227.731H148.366C148.545 227.246 148.869 226.851 149.338 226.549C149.806 226.246 150.335 226.095 150.923 226.095C151.034 226.095 151.172 226.097 151.338 226.101C151.505 226.106 151.63 226.112 151.716 226.121V227.655C151.664 227.642 151.547 227.623 151.364 227.597C151.185 227.567 150.995 227.552 150.795 227.552C150.318 227.552 149.892 227.653 149.517 227.853C149.146 228.049 148.852 228.322 148.635 228.671C148.422 229.016 148.315 229.41 148.315 229.854V236.067H146.806ZM157.194 236.271C156.307 236.271 155.529 236.06 154.86 235.638C154.196 235.217 153.676 234.626 153.301 233.868C152.93 233.109 152.745 232.223 152.745 231.209C152.745 230.186 152.93 229.293 153.301 228.53C153.676 227.768 154.196 227.175 154.86 226.753C155.529 226.332 156.307 226.121 157.194 226.121C158.08 226.121 158.855 226.332 159.52 226.753C160.189 227.175 160.709 227.768 161.08 228.53C161.455 229.293 161.642 230.186 161.642 231.209C161.642 232.223 161.455 233.109 161.08 233.868C160.709 234.626 160.189 235.217 159.52 235.638C158.855 236.06 158.08 236.271 157.194 236.271ZM157.194 234.916C157.867 234.916 158.421 234.743 158.855 234.398C159.29 234.053 159.612 233.599 159.821 233.037C160.029 232.474 160.134 231.865 160.134 231.209C160.134 230.552 160.029 229.941 159.821 229.374C159.612 228.807 159.29 228.349 158.855 228C158.421 227.65 157.867 227.476 157.194 227.476C156.52 227.476 155.966 227.65 155.532 228C155.097 228.349 154.775 228.807 154.566 229.374C154.358 229.941 154.253 230.552 154.253 231.209C154.253 231.865 154.358 232.474 154.566 233.037C154.775 233.599 155.097 234.053 155.532 234.398C155.966 234.743 156.52 234.916 157.194 234.916ZM163.945 226.248H165.454V236.783C165.454 237.388 165.349 237.912 165.14 238.355C164.936 238.798 164.625 239.141 164.207 239.384C163.794 239.627 163.272 239.748 162.641 239.748C162.59 239.748 162.539 239.748 162.488 239.748C162.437 239.748 162.385 239.748 162.334 239.748V238.342C162.385 238.342 162.432 238.342 162.475 238.342C162.518 238.342 162.564 238.342 162.616 238.342C163.076 238.342 163.412 238.206 163.626 237.933C163.839 237.665 163.945 237.281 163.945 236.783V226.248ZM164.687 224.612C164.393 224.612 164.139 224.512 163.926 224.312C163.717 224.111 163.613 223.871 163.613 223.589C163.613 223.308 163.717 223.067 163.926 222.867C164.139 222.667 164.393 222.567 164.687 222.567C164.981 222.567 165.232 222.667 165.441 222.867C165.654 223.067 165.76 223.308 165.76 223.589C165.76 223.871 165.654 224.111 165.441 224.312C165.232 224.512 164.981 224.612 164.687 224.612ZM172.333 236.271C171.387 236.271 170.571 236.062 169.885 235.645C169.203 235.223 168.677 234.635 168.306 233.881C167.94 233.122 167.756 232.24 167.756 231.234C167.756 230.229 167.94 229.342 168.306 228.575C168.677 227.804 169.192 227.203 169.853 226.773C170.518 226.338 171.293 226.121 172.18 226.121C172.691 226.121 173.196 226.206 173.695 226.376C174.193 226.547 174.647 226.824 175.056 227.207C175.465 227.587 175.791 228.089 176.034 228.716C176.277 229.342 176.398 230.114 176.398 231.03V231.669H168.83V230.365H174.864C174.864 229.811 174.754 229.317 174.532 228.882C174.315 228.447 174.004 228.104 173.599 227.853C173.198 227.601 172.725 227.476 172.18 227.476C171.579 227.476 171.059 227.625 170.62 227.923C170.185 228.217 169.851 228.601 169.616 229.074C169.382 229.547 169.265 230.054 169.265 230.595V231.464C169.265 232.206 169.393 232.834 169.648 233.35C169.908 233.861 170.268 234.251 170.729 234.52C171.189 234.784 171.724 234.916 172.333 234.916C172.729 234.916 173.087 234.861 173.407 234.75C173.731 234.635 174.01 234.464 174.244 234.239C174.479 234.008 174.66 233.723 174.788 233.382L176.245 233.791C176.092 234.285 175.834 234.72 175.472 235.095C175.109 235.466 174.662 235.756 174.129 235.964C173.597 236.169 172.998 236.271 172.333 236.271ZM182.682 236.271C181.761 236.271 180.969 236.054 180.304 235.619C179.639 235.185 179.128 234.586 178.77 233.823C178.412 233.06 178.233 232.189 178.233 231.209C178.233 230.212 178.416 229.332 178.783 228.569C179.153 227.802 179.669 227.203 180.33 226.773C180.994 226.338 181.77 226.121 182.656 226.121C183.347 226.121 183.969 226.248 184.523 226.504C185.077 226.76 185.531 227.118 185.884 227.578C186.238 228.038 186.457 228.575 186.543 229.189H185.034C184.919 228.741 184.663 228.345 184.267 228C183.875 227.65 183.347 227.476 182.682 227.476C182.094 227.476 181.578 227.629 181.135 227.936C180.696 228.239 180.353 228.667 180.106 229.221C179.863 229.77 179.741 230.416 179.741 231.158C179.741 231.916 179.861 232.577 180.099 233.139C180.342 233.702 180.683 234.138 181.122 234.449C181.565 234.761 182.085 234.916 182.682 234.916C183.074 234.916 183.43 234.848 183.749 234.712C184.069 234.575 184.339 234.379 184.561 234.123C184.783 233.868 184.94 233.561 185.034 233.203H186.543C186.457 233.783 186.246 234.305 185.91 234.769C185.577 235.229 185.136 235.596 184.587 235.868C184.041 236.137 183.406 236.271 182.682 236.271ZM193.018 226.248V227.527H187.93V226.248H193.018ZM189.413 223.896H190.921V233.254C190.921 233.68 190.983 234 191.107 234.213C191.234 234.422 191.396 234.562 191.592 234.635C191.793 234.703 192.004 234.737 192.225 234.737C192.391 234.737 192.528 234.729 192.634 234.712C192.741 234.69 192.826 234.673 192.89 234.66L193.197 236.016C193.094 236.054 192.952 236.092 192.768 236.131C192.585 236.173 192.353 236.194 192.072 236.194C191.646 236.194 191.228 236.103 190.819 235.92C190.414 235.736 190.077 235.457 189.809 235.082C189.545 234.707 189.413 234.234 189.413 233.663V223.896ZM204.594 236.067H200.554V222.976H204.773C206.043 222.976 207.129 223.238 208.033 223.762C208.936 224.282 209.629 225.03 210.11 226.006C210.592 226.977 210.832 228.141 210.832 229.496C210.832 230.859 210.589 232.033 210.104 233.018C209.618 233.998 208.911 234.752 207.982 235.28C207.053 235.805 205.923 236.067 204.594 236.067ZM202.139 234.66H204.491C205.574 234.66 206.471 234.452 207.183 234.034C207.894 233.616 208.425 233.022 208.774 232.251C209.124 231.479 209.298 230.561 209.298 229.496C209.298 228.439 209.126 227.529 208.781 226.766C208.435 225.999 207.92 225.411 207.234 225.002C206.548 224.589 205.693 224.382 204.67 224.382H202.139V234.66ZM217.403 236.271C216.457 236.271 215.641 236.062 214.955 235.645C214.273 235.223 213.747 234.635 213.376 233.881C213.01 233.122 212.827 232.24 212.827 231.234C212.827 230.229 213.01 229.342 213.376 228.575C213.747 227.804 214.263 227.203 214.923 226.773C215.588 226.338 216.364 226.121 217.25 226.121C217.761 226.121 218.266 226.206 218.765 226.376C219.263 226.547 219.717 226.824 220.126 227.207C220.536 227.587 220.862 228.089 221.104 228.716C221.347 229.342 221.469 230.114 221.469 231.03V231.669H213.901V230.365H219.935C219.935 229.811 219.824 229.317 219.602 228.882C219.385 228.447 219.074 228.104 218.669 227.853C218.268 227.601 217.795 227.476 217.25 227.476C216.649 227.476 216.129 227.625 215.69 227.923C215.256 228.217 214.921 228.601 214.687 229.074C214.452 229.547 214.335 230.054 214.335 230.595V231.464C214.335 232.206 214.463 232.834 214.719 233.35C214.979 233.861 215.339 234.251 215.799 234.52C216.259 234.784 216.794 234.916 217.403 234.916C217.8 234.916 218.158 234.861 218.477 234.75C218.801 234.635 219.08 234.464 219.315 234.239C219.549 234.008 219.73 233.723 219.858 233.382L221.315 233.791C221.162 234.285 220.904 234.72 220.542 235.095C220.18 235.466 219.732 235.756 219.2 235.964C218.667 236.169 218.068 236.271 217.403 236.271ZM225.272 222.976V236.067H223.763V222.976H225.272ZM228.035 236.067V226.248H229.544V236.067H228.035ZM228.802 224.612C228.508 224.612 228.254 224.512 228.041 224.312C227.833 224.111 227.728 223.871 227.728 223.589C227.728 223.308 227.833 223.067 228.041 222.867C228.254 222.667 228.508 222.567 228.802 222.567C229.096 222.567 229.347 222.667 229.556 222.867C229.769 223.067 229.876 223.308 229.876 223.589C229.876 223.871 229.769 224.111 229.556 224.312C229.347 224.512 229.096 224.612 228.802 224.612ZM240.335 226.248L236.704 236.067H235.17L231.539 226.248H233.176L235.886 234.072H235.988L238.699 226.248H240.335ZM246.091 236.271C245.145 236.271 244.329 236.062 243.643 235.645C242.961 235.223 242.435 234.635 242.064 233.881C241.697 233.122 241.514 232.24 241.514 231.234C241.514 230.229 241.697 229.342 242.064 228.575C242.435 227.804 242.95 227.203 243.611 226.773C244.276 226.338 245.051 226.121 245.938 226.121C246.449 226.121 246.954 226.206 247.452 226.376C247.951 226.547 248.405 226.824 248.814 227.207C249.223 227.587 249.549 228.089 249.792 228.716C250.035 229.342 250.156 230.114 250.156 231.03V231.669H242.588V230.365H248.622C248.622 229.811 248.511 229.317 248.29 228.882C248.072 228.447 247.761 228.104 247.357 227.853C246.956 227.601 246.483 227.476 245.938 227.476C245.337 227.476 244.817 227.625 244.378 227.923C243.943 228.217 243.609 228.601 243.374 229.074C243.14 229.547 243.023 230.054 243.023 230.595V231.464C243.023 232.206 243.151 232.834 243.406 233.35C243.666 233.861 244.026 234.251 244.487 234.52C244.947 234.784 245.482 234.916 246.091 234.916C246.487 234.916 246.845 234.861 247.165 234.75C247.489 234.635 247.768 234.464 248.002 234.239C248.237 234.008 248.418 233.723 248.545 233.382L250.003 233.791C249.849 234.285 249.592 234.72 249.229 235.095C248.867 235.466 248.42 235.756 247.887 235.964C247.354 236.169 246.756 236.271 246.091 236.271ZM252.451 236.067V226.248H253.908V227.731H254.011C254.19 227.246 254.513 226.851 254.982 226.549C255.451 226.246 255.979 226.095 256.567 226.095C256.678 226.095 256.817 226.097 256.983 226.101C257.149 226.106 257.275 226.112 257.36 226.121V227.655C257.309 227.642 257.192 227.623 257.009 227.597C256.83 227.567 256.64 227.552 256.44 227.552C255.962 227.552 255.536 227.653 255.161 227.853C254.79 228.049 254.496 228.322 254.279 228.671C254.066 229.016 253.96 229.41 253.96 229.854V236.067H252.451ZM260.419 239.748C260.163 239.748 259.935 239.727 259.735 239.685C259.534 239.646 259.396 239.608 259.319 239.569L259.703 238.24C260.069 238.334 260.393 238.368 260.674 238.342C260.956 238.317 261.205 238.191 261.422 237.965C261.644 237.743 261.846 237.383 262.029 236.885L262.311 236.118L258.68 226.248H260.316L263.027 234.072H263.129L265.839 226.248H267.475L263.308 237.498C263.12 238.006 262.888 238.425 262.611 238.758C262.334 239.094 262.012 239.344 261.646 239.506C261.284 239.668 260.875 239.748 260.419 239.748Z" fill="#08546C"/>
<path d="M1094.37 202L1109.21 172.614V172.375H1091.98V167.091H1115.76V172.494L1100.93 202H1094.37ZM1133.41 202.665C1130.61 202.665 1128.2 201.955 1126.19 200.534C1124.19 199.102 1122.65 197.04 1121.57 194.347C1120.5 191.642 1119.96 188.386 1119.96 184.58C1119.98 180.773 1120.52 177.534 1121.58 174.864C1122.66 172.182 1124.2 170.136 1126.2 168.727C1128.21 167.318 1130.62 166.614 1133.41 166.614C1136.21 166.614 1138.61 167.318 1140.62 168.727C1142.63 170.136 1144.17 172.182 1145.24 174.864C1146.32 177.545 1146.86 180.784 1146.86 184.58C1146.86 188.398 1146.32 191.659 1145.24 194.364C1144.17 197.057 1142.63 199.114 1140.62 200.534C1138.62 201.955 1136.22 202.665 1133.41 202.665ZM1133.41 197.33C1135.59 197.33 1137.32 196.256 1138.58 194.108C1139.85 191.949 1140.49 188.773 1140.49 184.58C1140.49 181.807 1140.2 179.477 1139.62 177.591C1139.04 175.705 1138.22 174.284 1137.16 173.33C1136.11 172.364 1134.86 171.881 1133.41 171.881C1131.24 171.881 1129.53 172.96 1128.27 175.119C1127 177.267 1126.37 180.42 1126.36 184.58C1126.34 187.364 1126.62 189.705 1127.19 191.602C1127.77 193.5 1128.59 194.932 1129.65 195.898C1130.7 196.852 1131.96 197.33 1133.41 197.33ZM1162.89 196.409V172.818H1168.24V196.409H1162.89ZM1153.77 187.29V181.938H1177.36V187.29H1153.77Z" fill="#08546C"/>
<path d="M1077.59 236.067V222.976H1079.17V228.805H1086.15V222.976H1087.74V236.067H1086.15V230.212H1079.17V236.067H1077.59ZM1093.59 236.297C1092.97 236.297 1092.41 236.18 1091.9 235.945C1091.39 235.707 1090.99 235.364 1090.69 234.916C1090.39 234.464 1090.24 233.919 1090.24 233.28C1090.24 232.717 1090.36 232.261 1090.58 231.912C1090.8 231.558 1091.09 231.281 1091.47 231.081C1091.84 230.881 1092.25 230.731 1092.69 230.633C1093.14 230.531 1093.6 230.45 1094.05 230.391C1094.65 230.314 1095.13 230.256 1095.51 230.218C1095.88 230.175 1096.15 230.105 1096.32 230.007C1096.5 229.909 1096.59 229.739 1096.59 229.496V229.444C1096.59 228.814 1096.41 228.324 1096.07 227.974C1095.73 227.625 1095.21 227.45 1094.51 227.45C1093.79 227.45 1093.23 227.608 1092.82 227.923C1092.41 228.239 1092.12 228.575 1091.96 228.933L1090.53 228.422C1090.78 227.825 1091.12 227.361 1091.55 227.028C1091.98 226.692 1092.45 226.457 1092.95 226.325C1093.47 226.189 1093.97 226.121 1094.46 226.121C1094.78 226.121 1095.14 226.159 1095.55 226.236C1095.96 226.308 1096.36 226.459 1096.75 226.69C1097.13 226.92 1097.45 227.267 1097.71 227.731C1097.97 228.196 1098.09 228.818 1098.09 229.598V236.067H1096.59V234.737H1096.51C1096.41 234.95 1096.24 235.178 1096 235.421C1095.76 235.664 1095.44 235.871 1095.05 236.041C1094.65 236.212 1094.17 236.297 1093.59 236.297ZM1093.82 234.942C1094.42 234.942 1094.92 234.824 1095.33 234.59C1095.75 234.356 1096.06 234.053 1096.27 233.682C1096.48 233.312 1096.59 232.922 1096.59 232.513V231.132C1096.52 231.209 1096.38 231.279 1096.16 231.343C1095.95 231.403 1095.7 231.456 1095.42 231.503C1095.15 231.545 1094.87 231.584 1094.61 231.618C1094.35 231.648 1094.14 231.673 1093.98 231.694C1093.59 231.746 1093.22 231.829 1092.88 231.944C1092.54 232.055 1092.27 232.223 1092.06 232.449C1091.86 232.67 1091.75 232.973 1091.75 233.356C1091.75 233.881 1091.95 234.277 1092.33 234.545C1092.73 234.81 1093.22 234.942 1093.82 234.942ZM1100.85 239.748V226.248H1102.3V227.808H1102.48C1102.59 227.638 1102.75 227.42 1102.94 227.156C1103.14 226.888 1103.43 226.649 1103.8 226.44C1104.18 226.227 1104.68 226.121 1105.32 226.121C1106.15 226.121 1106.88 226.327 1107.51 226.741C1108.14 227.154 1108.63 227.74 1108.98 228.498C1109.34 229.257 1109.52 230.152 1109.52 231.183C1109.52 232.223 1109.34 233.124 1108.98 233.887C1108.63 234.645 1108.14 235.234 1107.51 235.651C1106.89 236.065 1106.17 236.271 1105.35 236.271C1104.72 236.271 1104.21 236.167 1103.83 235.958C1103.45 235.745 1103.16 235.504 1102.96 235.236C1102.75 234.963 1102.59 234.737 1102.48 234.558H1102.36V239.748H1100.85ZM1102.33 231.158C1102.33 231.899 1102.44 232.553 1102.66 233.12C1102.87 233.682 1103.19 234.123 1103.61 234.443C1104.03 234.758 1104.54 234.916 1105.14 234.916C1105.77 234.916 1106.3 234.75 1106.72 234.418C1107.15 234.081 1107.47 233.629 1107.68 233.062C1107.9 232.491 1108.01 231.856 1108.01 231.158C1108.01 230.467 1107.9 229.845 1107.69 229.291C1107.48 228.733 1107.16 228.292 1106.73 227.968C1106.31 227.64 1105.78 227.476 1105.14 227.476C1104.53 227.476 1104.01 227.631 1103.6 227.942C1103.18 228.249 1102.86 228.68 1102.65 229.234C1102.44 229.783 1102.33 230.425 1102.33 231.158ZM1111.82 239.748V226.248H1113.27V227.808H1113.45C1113.56 227.638 1113.72 227.42 1113.91 227.156C1114.11 226.888 1114.4 226.649 1114.77 226.44C1115.14 226.227 1115.65 226.121 1116.29 226.121C1117.12 226.121 1117.85 226.327 1118.48 226.741C1119.11 227.154 1119.6 227.74 1119.95 228.498C1120.31 229.257 1120.48 230.152 1120.48 231.183C1120.48 232.223 1120.31 233.124 1119.95 233.887C1119.6 234.645 1119.11 235.234 1118.48 235.651C1117.86 236.065 1117.13 236.271 1116.32 236.271C1115.69 236.271 1115.18 236.167 1114.8 235.958C1114.42 235.745 1114.13 235.504 1113.93 235.236C1113.72 234.963 1113.56 234.737 1113.45 234.558H1113.32V239.748H1111.82ZM1113.3 231.158C1113.3 231.899 1113.41 232.553 1113.63 233.12C1113.84 233.682 1114.16 234.123 1114.58 234.443C1115 234.758 1115.51 234.916 1116.11 234.916C1116.74 234.916 1117.27 234.75 1117.69 234.418C1118.12 234.081 1118.44 233.629 1118.65 233.062C1118.87 232.491 1118.98 231.856 1118.98 231.158C1118.98 230.467 1118.87 229.845 1118.66 229.291C1118.45 228.733 1118.13 228.292 1117.7 227.968C1117.28 227.64 1116.75 227.476 1116.11 227.476C1115.5 227.476 1114.98 227.631 1114.56 227.942C1114.15 228.249 1113.83 228.68 1113.62 229.234C1113.41 229.783 1113.3 230.425 1113.3 231.158ZM1123.41 239.748C1123.15 239.748 1122.92 239.727 1122.72 239.685C1122.52 239.646 1122.38 239.608 1122.31 239.569L1122.69 238.24C1123.06 238.334 1123.38 238.368 1123.66 238.342C1123.94 238.317 1124.19 238.191 1124.41 237.965C1124.63 237.743 1124.83 237.383 1125.02 236.885L1125.3 236.118L1121.67 226.248H1123.3L1126.01 234.072H1126.12L1128.83 226.248H1130.46L1126.29 237.498C1126.11 238.006 1125.87 238.425 1125.6 238.758C1125.32 239.094 1125 239.344 1124.63 239.506C1124.27 239.668 1123.86 239.748 1123.41 239.748ZM1148.25 227.067H1146.67C1146.58 226.611 1146.41 226.21 1146.18 225.865C1145.95 225.52 1145.67 225.23 1145.33 224.996C1145 224.757 1144.64 224.578 1144.24 224.459C1143.84 224.339 1143.42 224.28 1142.99 224.28C1142.19 224.28 1141.48 224.48 1140.83 224.881C1140.19 225.281 1139.68 225.871 1139.31 226.651C1138.93 227.431 1138.74 228.388 1138.74 229.521C1138.74 230.655 1138.93 231.611 1139.31 232.391C1139.68 233.171 1140.19 233.761 1140.83 234.162C1141.48 234.562 1142.19 234.763 1142.99 234.763C1143.42 234.763 1143.84 234.703 1144.24 234.584C1144.64 234.464 1145 234.288 1145.33 234.053C1145.67 233.815 1145.95 233.523 1146.18 233.177C1146.41 232.828 1146.58 232.427 1146.67 231.976H1148.25C1148.13 232.645 1147.92 233.243 1147.6 233.772C1147.29 234.3 1146.89 234.75 1146.43 235.121C1145.96 235.487 1145.43 235.766 1144.85 235.958C1144.27 236.15 1143.65 236.246 1142.99 236.246C1141.87 236.246 1140.88 235.973 1140.01 235.427C1139.14 234.882 1138.46 234.106 1137.96 233.101C1137.46 232.095 1137.21 230.902 1137.21 229.521C1137.21 228.141 1137.46 226.947 1137.96 225.942C1138.46 224.936 1139.14 224.16 1140.01 223.615C1140.88 223.069 1141.87 222.797 1142.99 222.797C1143.65 222.797 1144.27 222.893 1144.85 223.084C1145.43 223.276 1145.96 223.557 1146.43 223.928C1146.89 224.295 1147.29 224.742 1147.6 225.27C1147.92 225.795 1148.13 226.393 1148.25 227.067ZM1152.12 222.976V236.067H1150.61V222.976H1152.12ZM1154.88 236.067V226.248H1156.39V236.067H1154.88ZM1155.65 224.612C1155.36 224.612 1155.1 224.512 1154.89 224.312C1154.68 224.111 1154.58 223.871 1154.58 223.589C1154.58 223.308 1154.68 223.067 1154.89 222.867C1155.1 222.667 1155.36 222.567 1155.65 222.567C1155.94 222.567 1156.2 222.667 1156.4 222.867C1156.62 223.067 1156.72 223.308 1156.72 223.589C1156.72 223.871 1156.62 224.111 1156.4 224.312C1156.2 224.512 1155.94 224.612 1155.65 224.612ZM1163.27 236.271C1162.32 236.271 1161.51 236.062 1160.82 235.645C1160.14 235.223 1159.61 234.635 1159.24 233.881C1158.88 233.122 1158.69 232.24 1158.69 231.234C1158.69 230.229 1158.88 229.342 1159.24 228.575C1159.61 227.804 1160.13 227.203 1160.79 226.773C1161.46 226.338 1162.23 226.121 1163.12 226.121C1163.63 226.121 1164.13 226.206 1164.63 226.376C1165.13 226.547 1165.58 226.824 1165.99 227.207C1166.4 227.587 1166.73 228.089 1166.97 228.716C1167.21 229.342 1167.34 230.114 1167.34 231.03V231.669H1159.77V230.365H1165.8C1165.8 229.811 1165.69 229.317 1165.47 228.882C1165.25 228.447 1164.94 228.104 1164.54 227.853C1164.14 227.601 1163.66 227.476 1163.12 227.476C1162.52 227.476 1162 227.625 1161.56 227.923C1161.12 228.217 1160.79 228.601 1160.55 229.074C1160.32 229.547 1160.2 230.054 1160.2 230.595V231.464C1160.2 232.206 1160.33 232.834 1160.59 233.35C1160.85 233.861 1161.21 234.251 1161.67 234.52C1162.13 234.784 1162.66 234.916 1163.27 234.916C1163.67 234.916 1164.02 234.861 1164.34 234.75C1164.67 234.635 1164.95 234.464 1165.18 234.239C1165.42 234.008 1165.6 233.723 1165.73 233.382L1167.18 233.791C1167.03 234.285 1166.77 234.72 1166.41 235.095C1166.05 235.466 1165.6 235.756 1165.07 235.964C1164.53 236.169 1163.94 236.271 1163.27 236.271ZM1171.14 230.16V236.067H1169.63V226.248H1171.09V227.783H1171.22C1171.45 227.284 1171.8 226.883 1172.26 226.581C1172.73 226.274 1173.34 226.121 1174.08 226.121C1174.74 226.121 1175.33 226.257 1175.82 226.53C1176.32 226.798 1176.71 227.207 1176.99 227.757C1177.26 228.302 1177.4 228.993 1177.4 229.828V236.067H1175.89V229.93C1175.89 229.159 1175.69 228.558 1175.29 228.128C1174.89 227.693 1174.34 227.476 1173.64 227.476C1173.16 227.476 1172.73 227.58 1172.35 227.789C1171.98 227.998 1171.68 228.302 1171.47 228.703C1171.25 229.104 1171.14 229.589 1171.14 230.16ZM1184.43 226.248V227.527H1179.34V226.248H1184.43ZM1180.82 223.896H1182.33V233.254C1182.33 233.68 1182.4 234 1182.52 234.213C1182.65 234.422 1182.81 234.562 1183 234.635C1183.2 234.703 1183.42 234.737 1183.64 234.737C1183.8 234.737 1183.94 234.729 1184.05 234.712C1184.15 234.69 1184.24 234.673 1184.3 234.66L1184.61 236.016C1184.51 236.054 1184.36 236.092 1184.18 236.131C1184 236.173 1183.77 236.194 1183.48 236.194C1183.06 236.194 1182.64 236.103 1182.23 235.92C1181.83 235.736 1181.49 235.457 1181.22 235.082C1180.96 234.707 1180.82 234.234 1180.82 233.663V223.896ZM1193.48 228.447L1192.12 228.831C1192.04 228.605 1191.91 228.386 1191.75 228.172C1191.58 227.955 1191.36 227.776 1191.08 227.636C1190.8 227.495 1190.44 227.425 1190 227.425C1189.4 227.425 1188.9 227.563 1188.5 227.84C1188.1 228.113 1187.9 228.46 1187.9 228.882C1187.9 229.257 1188.04 229.553 1188.31 229.77C1188.59 229.988 1189.01 230.169 1189.59 230.314L1191.05 230.672C1191.93 230.885 1192.58 231.211 1193.01 231.65C1193.44 232.084 1193.66 232.645 1193.66 233.331C1193.66 233.893 1193.49 234.396 1193.17 234.839C1192.85 235.283 1192.4 235.632 1191.83 235.888C1191.25 236.143 1190.58 236.271 1189.82 236.271C1188.82 236.271 1187.99 236.054 1187.34 235.619C1186.68 235.185 1186.26 234.55 1186.09 233.714L1187.52 233.356C1187.66 233.885 1187.91 234.281 1188.29 234.545C1188.68 234.81 1189.18 234.942 1189.8 234.942C1190.5 234.942 1191.06 234.793 1191.47 234.494C1191.89 234.192 1192.1 233.829 1192.1 233.408C1192.1 233.067 1191.98 232.781 1191.74 232.551C1191.5 232.317 1191.13 232.142 1190.64 232.027L1189 231.643C1188.1 231.43 1187.44 231.1 1187.02 230.653C1186.6 230.201 1186.4 229.636 1186.4 228.959C1186.4 228.405 1186.55 227.915 1186.86 227.489C1187.18 227.062 1187.61 226.728 1188.15 226.485C1188.69 226.242 1189.31 226.121 1190 226.121C1190.97 226.121 1191.73 226.334 1192.29 226.76C1192.85 227.186 1193.24 227.748 1193.48 228.447Z" fill="#08546C"/>
<path d="M549.735 202.477C547.201 202.477 544.951 202.051 542.985 201.199C541.03 200.347 539.496 199.182 538.383 197.705C537.28 196.216 536.735 194.528 536.746 192.642C536.735 191.176 537.053 189.83 537.701 188.602C538.349 187.375 539.224 186.352 540.326 185.534C541.44 184.705 542.678 184.176 544.042 183.949V183.71C542.246 183.312 540.792 182.398 539.678 180.966C538.576 179.523 538.03 177.858 538.042 175.972C538.03 174.176 538.53 172.574 539.542 171.165C540.553 169.756 541.94 168.648 543.701 167.841C545.462 167.023 547.474 166.614 549.735 166.614C551.974 166.614 553.968 167.023 555.718 167.841C557.479 168.648 558.866 169.756 559.877 171.165C560.9 172.574 561.411 174.176 561.411 175.972C561.411 177.858 560.849 179.523 559.724 180.966C558.61 182.398 557.172 183.312 555.411 183.71V183.949C556.775 184.176 558.002 184.705 559.093 185.534C560.195 186.352 561.07 187.375 561.718 188.602C562.377 189.83 562.707 191.176 562.707 192.642C562.707 194.528 562.15 196.216 561.036 197.705C559.922 199.182 558.388 200.347 556.434 201.199C554.491 202.051 552.258 202.477 549.735 202.477ZM549.735 197.602C551.042 197.602 552.178 197.381 553.144 196.938C554.11 196.483 554.86 195.847 555.394 195.028C555.928 194.21 556.201 193.267 556.212 192.199C556.201 191.085 555.911 190.102 555.343 189.25C554.786 188.386 554.019 187.71 553.042 187.222C552.076 186.733 550.974 186.489 549.735 186.489C548.485 186.489 547.371 186.733 546.394 187.222C545.417 187.71 544.644 188.386 544.076 189.25C543.519 190.102 543.246 191.085 543.258 192.199C543.246 193.267 543.508 194.21 544.042 195.028C544.576 195.835 545.326 196.466 546.292 196.92C547.269 197.375 548.417 197.602 549.735 197.602ZM549.735 181.699C550.803 181.699 551.746 181.483 552.565 181.051C553.394 180.619 554.047 180.017 554.525 179.244C555.002 178.472 555.246 177.58 555.258 176.568C555.246 175.568 555.008 174.693 554.542 173.943C554.076 173.182 553.428 172.597 552.599 172.188C551.769 171.767 550.815 171.557 549.735 171.557C548.633 171.557 547.661 171.767 546.82 172.188C545.991 172.597 545.343 173.182 544.877 173.943C544.422 174.693 544.201 175.568 544.212 176.568C544.201 177.58 544.428 178.472 544.894 179.244C545.371 180.006 546.025 180.608 546.854 181.051C547.695 181.483 548.655 181.699 549.735 181.699Z" fill="#08546C"/>
<path d="M475.46 222.976H477.276L480.906 229.087H481.06L484.69 222.976H486.506L481.776 230.672V236.067H480.19V230.672L475.46 222.976ZM491.079 236.271C490.133 236.271 489.317 236.062 488.631 235.645C487.949 235.223 487.423 234.635 487.052 233.881C486.686 233.122 486.502 232.24 486.502 231.234C486.502 230.229 486.686 229.342 487.052 228.575C487.423 227.804 487.939 227.203 488.599 226.773C489.264 226.338 490.039 226.121 490.926 226.121C491.437 226.121 491.942 226.206 492.441 226.376C492.939 226.547 493.393 226.824 493.802 227.207C494.211 227.587 494.537 228.089 494.78 228.716C495.023 229.342 495.145 230.114 495.145 231.03V231.669H487.576V230.365H493.61C493.61 229.811 493.5 229.317 493.278 228.882C493.061 228.447 492.75 228.104 492.345 227.853C491.944 227.601 491.471 227.476 490.926 227.476C490.325 227.476 489.805 227.625 489.366 227.923C488.931 228.217 488.597 228.601 488.363 229.074C488.128 229.547 488.011 230.054 488.011 230.595V231.464C488.011 232.206 488.139 232.834 488.395 233.35C488.654 233.861 489.015 234.251 489.475 234.52C489.935 234.784 490.47 234.916 491.079 234.916C491.475 234.916 491.833 234.861 492.153 234.75C492.477 234.635 492.756 234.464 492.99 234.239C493.225 234.008 493.406 233.723 493.534 233.382L494.991 233.791C494.838 234.285 494.58 234.72 494.218 235.095C493.855 235.466 493.408 235.756 492.875 235.964C492.343 236.169 491.744 236.271 491.079 236.271ZM500.328 236.297C499.706 236.297 499.142 236.18 498.635 235.945C498.127 235.707 497.725 235.364 497.426 234.916C497.128 234.464 496.979 233.919 496.979 233.28C496.979 232.717 497.09 232.261 497.311 231.912C497.533 231.558 497.829 231.281 498.2 231.081C498.571 230.881 498.98 230.731 499.427 230.633C499.879 230.531 500.333 230.45 500.789 230.391C501.385 230.314 501.869 230.256 502.24 230.218C502.615 230.175 502.887 230.105 503.058 230.007C503.233 229.909 503.32 229.739 503.32 229.496V229.444C503.32 228.814 503.147 228.324 502.802 227.974C502.461 227.625 501.944 227.45 501.249 227.45C500.529 227.45 499.964 227.608 499.555 227.923C499.146 228.239 498.858 228.575 498.692 228.933L497.26 228.422C497.516 227.825 497.857 227.361 498.283 227.028C498.713 226.692 499.182 226.457 499.689 226.325C500.201 226.189 500.703 226.121 501.198 226.121C501.513 226.121 501.875 226.159 502.284 226.236C502.698 226.308 503.096 226.459 503.48 226.69C503.868 226.92 504.189 227.267 504.445 227.731C504.701 228.196 504.828 228.818 504.828 229.598V236.067H503.32V234.737H503.243C503.141 234.95 502.971 235.178 502.732 235.421C502.493 235.664 502.176 235.871 501.779 236.041C501.383 236.212 500.9 236.297 500.328 236.297ZM500.559 234.942C501.155 234.942 501.658 234.824 502.067 234.59C502.48 234.356 502.792 234.053 503 233.682C503.213 233.312 503.32 232.922 503.32 232.513V231.132C503.256 231.209 503.115 231.279 502.898 231.343C502.685 231.403 502.438 231.456 502.157 231.503C501.88 231.545 501.609 231.584 501.345 231.618C501.085 231.648 500.874 231.673 500.712 231.694C500.32 231.746 499.953 231.829 499.613 231.944C499.276 232.055 499.003 232.223 498.794 232.449C498.59 232.67 498.488 232.973 498.488 233.356C498.488 233.881 498.681 234.277 499.069 234.545C499.461 234.81 499.958 234.942 500.559 234.942ZM507.582 236.067V226.248H509.039V227.731H509.142C509.32 227.246 509.644 226.851 510.113 226.549C510.582 226.246 511.11 226.095 511.698 226.095C511.809 226.095 511.948 226.097 512.114 226.101C512.28 226.106 512.406 226.112 512.491 226.121V227.655C512.44 227.642 512.323 227.623 512.139 227.597C511.96 227.567 511.771 227.552 511.57 227.552C511.093 227.552 510.667 227.653 510.292 227.853C509.921 228.049 509.627 228.322 509.41 228.671C509.197 229.016 509.09 229.41 509.09 229.854V236.067H507.582ZM521.234 228.447L519.879 228.831C519.793 228.605 519.668 228.386 519.501 228.172C519.339 227.955 519.118 227.776 518.837 227.636C518.555 227.495 518.195 227.425 517.756 227.425C517.156 227.425 516.655 227.563 516.254 227.84C515.858 228.113 515.66 228.46 515.66 228.882C515.66 229.257 515.796 229.553 516.069 229.77C516.342 229.988 516.768 230.169 517.347 230.314L518.805 230.672C519.683 230.885 520.337 231.211 520.767 231.65C521.197 232.084 521.413 232.645 521.413 233.331C521.413 233.893 521.251 234.396 520.927 234.839C520.607 235.283 520.16 235.632 519.585 235.888C519.009 236.143 518.34 236.271 517.577 236.271C516.576 236.271 515.747 236.054 515.091 235.619C514.435 235.185 514.019 234.55 513.844 233.714L515.276 233.356C515.413 233.885 515.67 234.281 516.05 234.545C516.433 234.81 516.934 234.942 517.552 234.942C518.255 234.942 518.813 234.793 519.227 234.494C519.644 234.192 519.853 233.829 519.853 233.408C519.853 233.067 519.734 232.781 519.495 232.551C519.256 232.317 518.89 232.142 518.396 232.027L516.759 231.643C515.86 231.43 515.2 231.1 514.778 230.653C514.36 230.201 514.151 229.636 514.151 228.959C514.151 228.405 514.307 227.915 514.618 227.489C514.933 227.062 515.362 226.728 515.903 226.485C516.448 226.242 517.066 226.121 517.756 226.121C518.728 226.121 519.491 226.334 520.045 226.76C520.603 227.186 520.999 227.748 521.234 228.447ZM528.95 236.067V222.976H536.851V224.382H530.536V228.805H536.442V230.212H530.536V234.66H536.953V236.067H528.95ZM540.629 226.248L542.981 230.263L545.333 226.248H547.072L543.901 231.158L547.072 236.067H545.333L542.981 232.257L540.629 236.067H538.89L542.009 231.158L538.89 226.248H540.629ZM549.224 239.748V226.248H550.682V227.808H550.861C550.972 227.638 551.125 227.42 551.321 227.156C551.521 226.888 551.807 226.649 552.178 226.44C552.553 226.227 553.06 226.121 553.699 226.121C554.526 226.121 555.254 226.327 555.885 226.741C556.516 227.154 557.008 227.74 557.362 228.498C557.715 229.257 557.892 230.152 557.892 231.183C557.892 232.223 557.715 233.124 557.362 233.887C557.008 234.645 556.518 235.234 555.891 235.651C555.265 236.065 554.543 236.271 553.724 236.271C553.094 236.271 552.589 236.167 552.21 235.958C551.83 235.745 551.538 235.504 551.334 235.236C551.129 234.963 550.972 234.737 550.861 234.558H550.733V239.748H549.224ZM550.707 231.158C550.707 231.899 550.816 232.553 551.033 233.12C551.251 233.682 551.568 234.123 551.986 234.443C552.403 234.758 552.915 234.916 553.52 234.916C554.151 234.916 554.677 234.75 555.099 234.418C555.525 234.081 555.844 233.629 556.058 233.062C556.275 232.491 556.384 231.856 556.384 231.158C556.384 230.467 556.277 229.845 556.064 229.291C555.855 228.733 555.538 228.292 555.112 227.968C554.69 227.64 554.159 227.476 553.52 227.476C552.906 227.476 552.391 227.631 551.973 227.942C551.555 228.249 551.24 228.68 551.027 229.234C550.814 229.783 550.707 230.425 550.707 231.158ZM564.31 236.271C563.364 236.271 562.548 236.062 561.862 235.645C561.18 235.223 560.653 234.635 560.283 233.881C559.916 233.122 559.733 232.24 559.733 231.234C559.733 230.229 559.916 229.342 560.283 228.575C560.653 227.804 561.169 227.203 561.83 226.773C562.494 226.338 563.27 226.121 564.156 226.121C564.668 226.121 565.173 226.206 565.671 226.376C566.17 226.547 566.624 226.824 567.033 227.207C567.442 227.587 567.768 228.089 568.011 228.716C568.254 229.342 568.375 230.114 568.375 231.03V231.669H560.807V230.365H566.841C566.841 229.811 566.73 229.317 566.509 228.882C566.291 228.447 565.98 228.104 565.575 227.853C565.175 227.601 564.702 227.476 564.156 227.476C563.555 227.476 563.036 227.625 562.597 227.923C562.162 228.217 561.827 228.601 561.593 229.074C561.359 229.547 561.241 230.054 561.241 230.595V231.464C561.241 232.206 561.369 232.834 561.625 233.35C561.885 233.861 562.245 234.251 562.705 234.52C563.165 234.784 563.7 234.916 564.31 234.916C564.706 234.916 565.064 234.861 565.384 234.75C565.707 234.635 565.987 234.464 566.221 234.239C566.455 234.008 566.636 233.723 566.764 233.382L568.222 233.791C568.068 234.285 567.81 234.72 567.448 235.095C567.086 235.466 566.638 235.756 566.106 235.964C565.573 236.169 564.974 236.271 564.31 236.271ZM570.67 236.067V226.248H572.127V227.731H572.229C572.408 227.246 572.732 226.851 573.201 226.549C573.67 226.246 574.198 226.095 574.786 226.095C574.897 226.095 575.036 226.097 575.202 226.101C575.368 226.106 575.494 226.112 575.579 226.121V227.655C575.528 227.642 575.411 227.623 575.227 227.597C575.048 227.567 574.859 227.552 574.658 227.552C574.181 227.552 573.755 227.653 573.38 227.853C573.009 228.049 572.715 228.322 572.498 228.671C572.285 229.016 572.178 229.41 572.178 229.854V236.067H570.67ZM577.367 236.067V226.248H578.876V236.067H577.367ZM578.134 224.612C577.84 224.612 577.586 224.512 577.373 224.312C577.165 224.111 577.06 223.871 577.06 223.589C577.06 223.308 577.165 223.067 577.373 222.867C577.586 222.667 577.84 222.567 578.134 222.567C578.428 222.567 578.68 222.667 578.888 222.867C579.101 223.067 579.208 223.308 579.208 223.589C579.208 223.871 579.101 224.111 578.888 224.312C578.68 224.512 578.428 224.612 578.134 224.612ZM585.755 236.271C584.809 236.271 583.993 236.062 583.307 235.645C582.625 235.223 582.099 234.635 581.728 233.881C581.362 233.122 581.178 232.24 581.178 231.234C581.178 230.229 581.362 229.342 581.728 228.575C582.099 227.804 582.614 227.203 583.275 226.773C583.94 226.338 584.715 226.121 585.602 226.121C586.113 226.121 586.618 226.206 587.116 226.376C587.615 226.547 588.069 226.824 588.478 227.207C588.887 227.587 589.213 228.089 589.456 228.716C589.699 229.342 589.82 230.114 589.82 231.03V231.669H582.252V230.365H588.286C588.286 229.811 588.175 229.317 587.954 228.882C587.737 228.447 587.425 228.104 587.021 227.853C586.62 227.601 586.147 227.476 585.602 227.476C585.001 227.476 584.481 227.625 584.042 227.923C583.607 228.217 583.273 228.601 583.038 229.074C582.804 229.547 582.687 230.054 582.687 230.595V231.464C582.687 232.206 582.815 232.834 583.07 233.35C583.33 233.861 583.69 234.251 584.151 234.52C584.611 234.784 585.146 234.916 585.755 234.916C586.151 234.916 586.509 234.861 586.829 234.75C587.153 234.635 587.432 234.464 587.666 234.239C587.901 234.008 588.082 233.723 588.21 233.382L589.667 233.791C589.513 234.285 589.256 234.72 588.893 235.095C588.531 235.466 588.084 235.756 587.551 235.964C587.018 236.169 586.42 236.271 585.755 236.271ZM593.624 230.16V236.067H592.115V226.248H593.572V227.783H593.7C593.93 227.284 594.28 226.883 594.749 226.581C595.217 226.274 595.822 226.121 596.564 226.121C597.229 226.121 597.81 226.257 598.309 226.53C598.808 226.798 599.195 227.207 599.472 227.757C599.749 228.302 599.888 228.993 599.888 229.828V236.067H598.379V229.93C598.379 229.159 598.179 228.558 597.778 228.128C597.378 227.693 596.828 227.476 596.129 227.476C595.648 227.476 595.217 227.58 594.838 227.789C594.463 227.998 594.167 228.302 593.95 228.703C593.732 229.104 593.624 229.589 593.624 230.16ZM606.633 236.271C605.713 236.271 604.92 236.054 604.255 235.619C603.59 235.185 603.079 234.586 602.721 233.823C602.363 233.06 602.184 232.189 602.184 231.209C602.184 230.212 602.367 229.332 602.734 228.569C603.105 227.802 603.62 227.203 604.281 226.773C604.945 226.338 605.721 226.121 606.607 226.121C607.298 226.121 607.92 226.248 608.474 226.504C609.028 226.76 609.482 227.118 609.835 227.578C610.189 228.038 610.409 228.575 610.494 229.189H608.985C608.87 228.741 608.615 228.345 608.218 228C607.826 227.65 607.298 227.476 606.633 227.476C606.045 227.476 605.529 227.629 605.086 227.936C604.647 228.239 604.304 228.667 604.057 229.221C603.814 229.77 603.693 230.416 603.693 231.158C603.693 231.916 603.812 232.577 604.051 233.139C604.294 233.702 604.634 234.138 605.073 234.449C605.517 234.761 606.036 234.916 606.633 234.916C607.025 234.916 607.381 234.848 607.7 234.712C608.02 234.575 608.291 234.379 608.512 234.123C608.734 233.868 608.892 233.561 608.985 233.203H610.494C610.409 233.783 610.198 234.305 609.861 234.769C609.529 235.229 609.088 235.596 608.538 235.868C607.992 236.137 607.357 236.271 606.633 236.271ZM616.816 236.271C615.869 236.271 615.053 236.062 614.367 235.645C613.686 235.223 613.159 234.635 612.789 233.881C612.422 233.122 612.239 232.24 612.239 231.234C612.239 230.229 612.422 229.342 612.789 228.575C613.159 227.804 613.675 227.203 614.335 226.773C615 226.338 615.776 226.121 616.662 226.121C617.173 226.121 617.678 226.206 618.177 226.376C618.676 226.547 619.129 226.824 619.539 227.207C619.948 227.587 620.274 228.089 620.517 228.716C620.759 229.342 620.881 230.114 620.881 231.03V231.669H613.313V230.365H619.347C619.347 229.811 619.236 229.317 619.014 228.882C618.797 228.447 618.486 228.104 618.081 227.853C617.681 227.601 617.208 227.476 616.662 227.476C616.061 227.476 615.541 227.625 615.102 227.923C614.668 228.217 614.333 228.601 614.099 229.074C613.865 229.547 613.747 230.054 613.747 230.595V231.464C613.747 232.206 613.875 232.834 614.131 233.35C614.391 233.861 614.751 234.251 615.211 234.52C615.671 234.784 616.206 234.916 616.816 234.916C617.212 234.916 617.57 234.861 617.889 234.75C618.213 234.635 618.492 234.464 618.727 234.239C618.961 234.008 619.142 233.723 619.27 233.382L620.727 233.791C620.574 234.285 620.316 234.72 619.954 235.095C619.592 235.466 619.144 235.756 618.612 235.964C618.079 236.169 617.48 236.271 616.816 236.271Z" fill="#08546C"/>
<path d="M836.809 167.091V202H830.485V173.244H830.281L822.116 178.46V172.665L830.792 167.091H836.809ZM858.457 202.477C856.786 202.466 855.156 202.176 853.565 201.608C851.974 201.028 850.542 200.091 849.269 198.795C847.996 197.489 846.985 195.756 846.235 193.597C845.485 191.426 845.116 188.739 845.127 185.534C845.127 182.545 845.445 179.881 846.082 177.54C846.718 175.199 847.633 173.222 848.826 171.608C850.019 169.983 851.457 168.744 853.138 167.892C854.832 167.04 856.724 166.614 858.815 166.614C861.008 166.614 862.951 167.045 864.644 167.909C866.349 168.773 867.724 169.955 868.769 171.455C869.815 172.943 870.462 174.625 870.712 176.5H864.491C864.173 175.159 863.519 174.091 862.531 173.295C861.553 172.489 860.315 172.085 858.815 172.085C856.394 172.085 854.531 173.136 853.224 175.239C851.928 177.341 851.275 180.227 851.263 183.898H851.502C852.059 182.898 852.781 182.04 853.667 181.324C854.553 180.608 855.553 180.057 856.667 179.67C857.792 179.273 858.979 179.074 860.229 179.074C862.275 179.074 864.11 179.562 865.735 180.54C867.371 181.517 868.667 182.864 869.621 184.58C870.576 186.284 871.048 188.239 871.036 190.443C871.048 192.739 870.525 194.801 869.468 196.631C868.411 198.449 866.94 199.881 865.053 200.926C863.167 201.972 860.968 202.489 858.457 202.477ZM858.423 197.364C859.661 197.364 860.769 197.062 861.746 196.46C862.724 195.858 863.496 195.045 864.065 194.023C864.633 193 864.911 191.852 864.9 190.58C864.911 189.33 864.638 188.199 864.082 187.188C863.536 186.176 862.781 185.375 861.815 184.784C860.849 184.193 859.746 183.898 858.508 183.898C857.587 183.898 856.729 184.074 855.934 184.426C855.138 184.778 854.445 185.267 853.854 185.892C853.263 186.506 852.798 187.222 852.457 188.04C852.127 188.847 851.957 189.71 851.945 190.631C851.957 191.847 852.241 192.966 852.798 193.989C853.354 195.011 854.121 195.83 855.099 196.443C856.076 197.057 857.184 197.364 858.423 197.364Z" fill="#08546C"/>
<path d="M817.122 236.067H815.46L820.267 222.976H821.903L826.71 236.067H825.048L821.136 225.047H821.034L817.122 236.067ZM817.736 230.953H824.435V232.359H817.736V230.953ZM829.539 236.067L826.547 226.248H828.132L830.255 233.766H830.357L832.453 226.248H834.064L836.135 233.74H836.238L838.36 226.248H839.945L836.953 236.067H835.471L833.323 228.524H833.169L831.022 236.067H829.539ZM844.828 236.297C844.206 236.297 843.642 236.18 843.135 235.945C842.627 235.707 842.225 235.364 841.926 234.916C841.628 234.464 841.479 233.919 841.479 233.28C841.479 232.717 841.59 232.261 841.811 231.912C842.033 231.558 842.329 231.281 842.7 231.081C843.071 230.881 843.48 230.731 843.927 230.633C844.379 230.531 844.833 230.45 845.289 230.391C845.885 230.314 846.369 230.256 846.74 230.218C847.115 230.175 847.387 230.105 847.558 230.007C847.733 229.909 847.82 229.739 847.82 229.496V229.444C847.82 228.814 847.647 228.324 847.302 227.974C846.961 227.625 846.444 227.45 845.749 227.45C845.029 227.45 844.464 227.608 844.055 227.923C843.646 228.239 843.358 228.575 843.192 228.933L841.76 228.422C842.016 227.825 842.357 227.361 842.783 227.028C843.213 226.692 843.682 226.457 844.189 226.325C844.701 226.189 845.203 226.121 845.698 226.121C846.013 226.121 846.375 226.159 846.784 226.236C847.198 226.308 847.596 226.459 847.98 226.69C848.368 226.92 848.689 227.267 848.945 227.731C849.201 228.196 849.328 228.818 849.328 229.598V236.067H847.82V234.737H847.743C847.641 234.95 847.471 235.178 847.232 235.421C846.993 235.664 846.676 235.871 846.279 236.041C845.883 236.212 845.4 236.297 844.828 236.297ZM845.059 234.942C845.655 234.942 846.158 234.824 846.567 234.59C846.98 234.356 847.292 234.053 847.5 233.682C847.713 233.312 847.82 232.922 847.82 232.513V231.132C847.756 231.209 847.615 231.279 847.398 231.343C847.185 231.403 846.938 231.456 846.657 231.503C846.38 231.545 846.109 231.584 845.845 231.618C845.585 231.648 845.374 231.673 845.212 231.694C844.82 231.746 844.453 231.829 844.113 231.944C843.776 232.055 843.503 232.223 843.294 232.449C843.09 232.67 842.988 232.973 842.988 233.356C842.988 233.881 843.181 234.277 843.569 234.545C843.961 234.81 844.458 234.942 845.059 234.942ZM852.082 236.067V226.248H853.539V227.731H853.642C853.82 227.246 854.144 226.851 854.613 226.549C855.082 226.246 855.61 226.095 856.198 226.095C856.309 226.095 856.448 226.097 856.614 226.101C856.78 226.106 856.906 226.112 856.991 226.121V227.655C856.94 227.642 856.823 227.623 856.639 227.597C856.46 227.567 856.271 227.552 856.07 227.552C855.593 227.552 855.167 227.653 854.792 227.853C854.421 228.049 854.127 228.322 853.91 228.671C853.697 229.016 853.59 229.41 853.59 229.854V236.067H852.082ZM862.188 236.271C861.369 236.271 860.647 236.065 860.021 235.651C859.394 235.234 858.904 234.645 858.551 233.887C858.197 233.124 858.02 232.223 858.02 231.183C858.02 230.152 858.197 229.257 858.551 228.498C858.904 227.74 859.396 227.154 860.027 226.741C860.658 226.327 861.387 226.121 862.213 226.121C862.852 226.121 863.357 226.227 863.728 226.44C864.103 226.649 864.389 226.888 864.585 227.156C864.785 227.42 864.941 227.638 865.051 227.808H865.179V222.976H866.688V236.067H865.23V234.558H865.051C864.941 234.737 864.783 234.963 864.578 235.236C864.374 235.504 864.082 235.745 863.703 235.958C863.323 236.167 862.818 236.271 862.188 236.271ZM862.392 234.916C862.997 234.916 863.509 234.758 863.926 234.443C864.344 234.123 864.661 233.682 864.879 233.12C865.096 232.553 865.205 231.899 865.205 231.158C865.205 230.425 865.098 229.783 864.885 229.234C864.672 228.68 864.357 228.249 863.939 227.942C863.521 227.631 863.006 227.476 862.392 227.476C861.753 227.476 861.22 227.64 860.794 227.968C860.372 228.292 860.055 228.733 859.842 229.291C859.633 229.845 859.529 230.467 859.529 231.158C859.529 231.856 859.635 232.491 859.848 233.062C860.066 233.629 860.385 234.081 860.807 234.418C861.233 234.75 861.762 234.916 862.392 234.916ZM876.615 228.447L875.259 228.831C875.174 228.605 875.048 228.386 874.882 228.172C874.72 227.955 874.499 227.776 874.218 227.636C873.936 227.495 873.576 227.425 873.137 227.425C872.536 227.425 872.036 227.563 871.635 227.84C871.239 228.113 871.041 228.46 871.041 228.882C871.041 229.257 871.177 229.553 871.45 229.77C871.722 229.988 872.149 230.169 872.728 230.314L874.186 230.672C875.063 230.885 875.718 231.211 876.148 231.65C876.578 232.084 876.794 232.645 876.794 233.331C876.794 233.893 876.632 234.396 876.308 234.839C875.988 235.283 875.541 235.632 874.965 235.888C874.39 236.143 873.721 236.271 872.958 236.271C871.957 236.271 871.128 236.054 870.472 235.619C869.816 235.185 869.4 234.55 869.225 233.714L870.657 233.356C870.794 233.885 871.051 234.281 871.431 234.545C871.814 234.81 872.315 234.942 872.933 234.942C873.636 234.942 874.194 234.793 874.607 234.494C875.025 234.192 875.234 233.829 875.234 233.408C875.234 233.067 875.115 232.781 874.876 232.551C874.637 232.317 874.271 232.142 873.776 232.027L872.14 231.643C871.241 231.43 870.58 231.1 870.159 230.653C869.741 230.201 869.532 229.636 869.532 228.959C869.532 228.405 869.688 227.915 869.999 227.489C870.314 227.062 870.742 226.728 871.284 226.485C871.829 226.242 872.447 226.121 873.137 226.121C874.109 226.121 874.872 226.334 875.426 226.76C875.984 227.186 876.38 227.748 876.615 228.447Z" fill="#08546C"/>
<path d="M614.207 78.3438C614.128 77.5994 613.793 77.0199 613.202 76.6051C612.616 76.1903 611.855 75.983 610.918 75.983C610.259 75.983 609.693 76.0824 609.222 76.2812C608.75 76.4801 608.389 76.75 608.139 77.0909C607.889 77.4318 607.761 77.821 607.756 78.2585C607.756 78.6222 607.838 78.9375 608.003 79.2045C608.173 79.4716 608.403 79.6989 608.693 79.8864C608.983 80.0682 609.304 80.2216 609.656 80.3466C610.009 80.4716 610.364 80.5767 610.722 80.6619L612.358 81.071C613.017 81.2244 613.651 81.4318 614.259 81.6932C614.872 81.9545 615.42 82.2841 615.903 82.6818C616.392 83.0795 616.778 83.5597 617.062 84.1222C617.347 84.6847 617.489 85.3437 617.489 86.0994C617.489 87.1222 617.227 88.0227 616.705 88.8011C616.182 89.5739 615.426 90.179 614.438 90.6165C613.455 91.0483 612.264 91.2642 610.866 91.2642C609.509 91.2642 608.33 91.054 607.33 90.6335C606.335 90.2131 605.557 89.5994 604.994 88.7926C604.438 87.9858 604.136 87.0028 604.091 85.8438H607.202C607.247 86.4517 607.435 86.9574 607.764 87.3608C608.094 87.7642 608.523 88.0653 609.051 88.2642C609.585 88.4631 610.182 88.5625 610.841 88.5625C611.528 88.5625 612.131 88.4602 612.648 88.2557C613.17 88.0455 613.58 87.7557 613.875 87.3864C614.17 87.0114 614.321 86.5739 614.327 86.0739C614.321 85.6193 614.188 85.2443 613.926 84.9489C613.665 84.6477 613.298 84.3977 612.827 84.1989C612.361 83.9943 611.815 83.8125 611.19 83.6534L609.205 83.142C607.767 82.7727 606.631 82.2131 605.795 81.4631C604.966 80.7074 604.551 79.7045 604.551 78.4545C604.551 77.4261 604.83 76.5256 605.386 75.7528C605.949 74.9801 606.713 74.3807 607.679 73.9545C608.645 73.5227 609.739 73.3068 610.96 73.3068C612.199 73.3068 613.284 73.5227 614.216 73.9545C615.153 74.3807 615.889 74.9744 616.423 75.7358C616.957 76.4915 617.233 77.3608 617.25 78.3438H614.207ZM619.54 76.196V73.5455H633.467V76.196H628.072V91H624.935V76.196H619.54ZM636.283 91H632.908L639.053 73.5455H642.957L649.11 91H645.735L641.073 77.125H640.937L636.283 91ZM636.394 84.1562H645.599V86.696H636.394V84.1562ZM648.533 76.196V73.5455H662.459V76.196H657.064V91H653.928V76.196H648.533ZM668.305 73.5455V91H665.143V73.5455H668.305ZM681.215 78.3438C681.136 77.5994 680.8 77.0199 680.21 76.6051C679.624 76.1903 678.863 75.983 677.925 75.983C677.266 75.983 676.701 76.0824 676.229 76.2812C675.758 76.4801 675.397 76.75 675.147 77.0909C674.897 77.4318 674.769 77.821 674.763 78.2585C674.763 78.6222 674.846 78.9375 675.011 79.2045C675.181 79.4716 675.411 79.6989 675.701 79.8864C675.991 80.0682 676.312 80.2216 676.664 80.3466C677.016 80.4716 677.371 80.5767 677.729 80.6619L679.366 81.071C680.025 81.2244 680.658 81.4318 681.266 81.6932C681.88 81.9545 682.428 82.2841 682.911 82.6818C683.4 83.0795 683.786 83.5597 684.07 84.1222C684.354 84.6847 684.496 85.3437 684.496 86.0994C684.496 87.1222 684.235 88.0227 683.712 88.8011C683.19 89.5739 682.434 90.179 681.445 90.6165C680.462 91.0483 679.272 91.2642 677.874 91.2642C676.516 91.2642 675.337 91.054 674.337 90.6335C673.343 90.2131 672.565 89.5994 672.002 88.7926C671.445 87.9858 671.144 87.0028 671.099 85.8438H674.21C674.255 86.4517 674.442 86.9574 674.772 87.3608C675.102 87.7642 675.531 88.0653 676.059 88.2642C676.593 88.4631 677.19 88.5625 677.849 88.5625C678.536 88.5625 679.138 88.4602 679.656 88.2557C680.178 88.0455 680.587 87.7557 680.883 87.3864C681.178 87.0114 681.329 86.5739 681.335 86.0739C681.329 85.6193 681.195 85.2443 680.934 84.9489C680.673 84.6477 680.306 84.3977 679.835 84.1989C679.369 83.9943 678.823 83.8125 678.198 83.6534L676.212 83.142C674.775 82.7727 673.638 82.2131 672.803 81.4631C671.974 80.7074 671.559 79.7045 671.559 78.4545C671.559 77.4261 671.837 76.5256 672.394 75.7528C672.957 74.9801 673.721 74.3807 674.687 73.9545C675.653 73.5227 676.746 73.3068 677.968 73.3068C679.207 73.3068 680.292 73.5227 681.224 73.9545C682.161 74.3807 682.897 74.9744 683.431 75.7358C683.965 76.4915 684.241 77.3608 684.258 78.3438H681.215ZM686.548 76.196V73.5455H700.474V76.196H695.08V91H691.943V76.196H686.548ZM706.321 73.5455V91H703.159V73.5455H706.321ZM724.685 79.4347H721.498C721.407 78.9119 721.239 78.4489 720.995 78.0455C720.751 77.6364 720.447 77.2898 720.083 77.0057C719.719 76.7216 719.305 76.5085 718.839 76.3665C718.379 76.2188 717.881 76.1449 717.347 76.1449C716.398 76.1449 715.558 76.3835 714.825 76.8608C714.092 77.3324 713.518 78.0256 713.103 78.9403C712.688 79.8494 712.481 80.9602 712.481 82.2727C712.481 83.608 712.688 84.733 713.103 85.6477C713.523 86.5568 714.097 87.2443 714.825 87.7102C715.558 88.1705 716.396 88.4006 717.339 88.4006C717.862 88.4006 718.35 88.3324 718.805 88.196C719.265 88.054 719.677 87.8466 720.04 87.5739C720.41 87.3011 720.719 86.9659 720.969 86.5682C721.225 86.1705 721.401 85.7159 721.498 85.2045L724.685 85.2216C724.566 86.0511 724.308 86.8295 723.91 87.5568C723.518 88.2841 723.004 88.9261 722.367 89.483C721.731 90.0341 720.987 90.4659 720.134 90.7784C719.282 91.0852 718.336 91.2386 717.296 91.2386C715.762 91.2386 714.393 90.8835 713.188 90.1733C711.984 89.4631 711.035 88.4375 710.342 87.0966C709.648 85.7557 709.302 84.1477 709.302 82.2727C709.302 80.392 709.651 78.7841 710.35 77.4489C711.049 76.108 712.001 75.0824 713.205 74.3722C714.41 73.6619 715.773 73.3068 717.296 73.3068C718.268 73.3068 719.171 73.4432 720.006 73.7159C720.842 73.9886 721.586 74.3892 722.239 74.9176C722.893 75.4403 723.43 76.0824 723.85 76.8438C724.276 77.5994 724.555 78.4631 724.685 79.4347Z" fill="#265A6A"/>
<defs>
<filter id="filter0_d_13_10" x="0" y="0" width="1330" height="483" filterUnits="userSpaceOnUse" color-interpolation-filters="sRGB">
<feFlood flood-opacity="0" result="BackgroundImageFix"/>
<feColorMatrix in="SourceAlpha" type="matrix" values="0 0 0 0 0 0 0 0 0 0 0 0 0 0 0 0 0 0 127 0" result="hardAlpha"/>
<feOffset dy="73"/>
<feGaussianBlur stdDeviation="40"/>
<feColorMatrix type="matrix" values="0 0 0 0 0 0 0 0 0 0 0 0 0 0 0 0 0 0 0.06 0"/>
<feBlend mode="normal" in2="BackgroundImageFix" result="effect1_dropShadow_13_10"/>
<feBlend mode="normal" in="SourceGraphic" in2="effect1_dropShadow_13_10" result="shape"/>
</filter>
</defs>
</svg>
